<?xml version="1.0" encoding="iso-8859-1"?>
<!-- Generator: Adobe Illustrator 21.0.0, SVG Export Plug-In . SVG Version: 6.00 Build 0)  -->
<svg version="1.1" id="Layer_1" xmlns="http://www.w3.org/2000/svg" xmlns:xlink="http://www.w3.org/1999/xlink" x="0px" y="0px"
	 viewBox="0 0 1440 720" style="enable-background:new 0 0 1440 720;" xml:space="preserve">
<g>
	<path style="fill:#3B3B6D;" d="M2540.244,892.089c0,164.964,0,329.928,0,494.945c-426.667,0-853.333,0-1280,0
		c0-165.018,0-329.982,0-494.945c1.345-1.762,3.257-2.153,5.319-2.25c2.999-0.14,5.998-0.116,8.997-0.116
		c417.122-0.003,834.245-0.003,1251.367,0c2.999,0,5.999-0.024,8.997,0.116C2536.987,889.936,2538.899,890.327,2540.244,892.089z"/>
	<path style="fill:#F5AF22;" d="M1976.04,974.264c6.151-3.049,8.606-8.844,10.992-15.395c7.173,2.833,14.162,5.592,21.816,8.615
		c-3.627,25.131-10.28,49.105-19.305,72.474c-11.783-0.955-22.376-6.234-33.575-9.312c-9.511-2.613-18.827-5.911-28.201-8.997
		c-2.682-0.883-5.294-1.774-7.531-3.538c-2.9-1.704-6.092-2.409-10.364-3.091c7.76,31.977,15.389,63.413,23.083,95.116
		c2.802-0.611,3.896-3.01,5.315-5.039c0.757-0.932,0.99-2.191,1.889-3.035c1.383-2.301,2.765-4.602,4.148-6.903
		c0.672-1.001,0.953-2.243,1.888-3.083c1.556-2.336,3.112-4.672,5.358-8.044c13.2,14.473,26.097,28.614,39.329,43.122
		c7.801-7.401,15.108-14.334,22.416-21.266c3.522,2.654,1.8,5.912,1.044,9.059c-7.713,7.059-15.426,14.117-23.138,21.176
		c-1.019,0.706-2.069,0.806-3.157,0.16c-8.611-9.431-17.222-18.862-25.833-28.294c-5.103-0.879-8.029-5.656-12.754-7.416
		c-7.572,5.966-9.361,16.625-17.321,21.377c-3.813-0.635-4.132-3.225-4.684-5.388c-3.533-13.848-6.088-27.916-9.333-41.832
		c-2.452-10.515-5.063-20.996-7.221-31.579c5.873,28.948,12.432,57.742,18.801,87.659c5.01-5.027,7.226-10.47,10.524-15.133
		c1.048-1.482,1.862-3.147,2.926-4.636c1.738-2.43,3.398-5.566,6.998-4.357c3.348,1.124,6.133,3.356,6.357,7.45
		c0.018,0.341-0.054,0.663-0.216,0.964c-1.097,1.17-1.116,2.844-1.94,4.141c-0.021,0.293-0.1,0.57-0.237,0.83
		c-0.836,0.899-1.168,2.089-1.793,3.109c-0.031,0.311-0.116,0.606-0.255,0.885c-0.808,0.902-1.077,2.117-1.791,3.074
		c-3.655,6.466-7.311,12.932-11.177,19.771c-7.952-1.49-15.311-4.115-22.966-6.883c2.589-10.17,0.555-18.229-9.29-22.744
		c-12.009-5.508-23.499-4.808-34.102,3.494c-1.924,1.507-3.503,3.455-5.826,5.786c-10.676-3.448-21.634-6.988-33.39-10.786
		c3.839-5.259,7.292-9.989,10.745-14.718c0.798-0.902,0.97-2.236,2.038-2.952c4.649-6.679,9.298-13.359,13.947-20.039
		c1-0.786,1.236-2.061,1.941-3.036c18.99-30.529,35.085-62.462,46.971-96.457c4.38-12.526,8.132-25.221,11.093-38.154
		c0.245-1.072,0.641-2.11,1.179-3.851c10.304,3.517,20.263,6.916,30.575,10.435c0.288,10.924-0.139,22.207,12.46,27.277
		C1968.33,975.574,1972.186,975.599,1976.04,974.264z"/>
	<path style="fill:#FEFEFC;" d="M1829.907,1282.671c0.561,1.753,0.72,3.196-0.354,5.103c-9.801-0.252-19.856-0.557-30.066,0.32
		c-1.605-6.1,0.2-11.592-0.747-17.95c-6.223,4.826-12.136,9.237-17.855,13.887c-9.947,8.088-20.859,7.302-31.534,2.661
		c-9.527-4.142-12.524-12.754-12.204-22.705c0.381-11.875,4.598-21.638,16.006-26.651c13.383-5.881,27.835-7.759,42.109-10.18
		c1.12-0.19,2.243-0.365,3.276-0.532c1.972-12.637-3.965-23.02-15.105-26.682c-6.888-2.264-13.675-1.608-20.612,0.238
		c-8.257,2.198-8.022,10.29-11.586,15.637c-1.82,0.772-3.311,0.163-5.137-0.719c0-4.441,0-8.876,0-13.866
		c13.702-10.191,28.881-16.287,46.692-12.304c15.805,3.535,24.388,14.609,24.224,30.885c-0.154,15.329-0.502,30.657-0.619,45.987
		C1816.288,1279.738,1816.374,1279.739,1829.907,1282.671z"/>
	<path style="fill:#FEFEFD;" d="M2091.83,1226.635c1.462-13.433-3.933-22.948-14.91-26.631c-6.852-2.299-13.635-1.656-20.598,0.069
		c-8.575,2.124-8.127,10.558-11.928,15.893c-1.849,0.452-3.41,0.198-5.096-1.197c0-4.209,0-8.65,0-13.515
		c13.814-10.247,29.004-16.306,46.787-12.315c15.613,3.504,24.212,14.458,24.086,30.432c-0.123,15.482-0.524,30.961-0.65,46.443
		c-0.115,14.088-0.024,14.089,13.39,16.767c0.945,1.51,0.76,3.094-0.055,5.394c-9.836-0.727-19.879-0.536-30.452-0.006
		c0-6.023,0-11.396,0-18.152c-6.828,5.29-12.735,9.727-18.488,14.355c-9.795,7.88-20.529,7.114-31.08,2.66
		c-9.132-3.855-12.562-12.014-12.461-21.553c0.126-11.865,3.689-22.236,15.287-27.568c13.749-6.321,28.71-8.169,43.472-10.609
		C2089.939,1226.969,2090.741,1226.824,2091.83,1226.635z"/>
	<path style="fill:#FEFEFE;" d="M1866.905,1206.066c-5.475,0-10.395,0-17.099,0c3.888-8.324,12.745-6.857,17.39-11.942
		c0-9.838,0-20.147,0-30.803c5.566-2.573,11.245-5.198,17.048-7.881c3.268,0.624,2.548,3.09,2.392,5.421
		c-0.752,11.26-1.44,22.525-2.175,34.174c9.954,0,19.359,0,29.237,0c0.055,3.525-0.673,6.619-2.114,10.089
		c-8.735,0-17.509,0-26.132,0c-1.586,2.944-1.004,5.663-1.033,8.252c-0.169,15.49,0.083,30.991-0.391,46.471
		c-0.565,18.441,11.581,18.557,22.7,14.949c1.094-0.355,2.129-0.891,3.131-1.317c1.592,0.468,2.054,1.707,2.697,3.433
		c-4.026,3.436-7.736,7.738-12.39,10.369c-15.624,8.832-33.811-1.712-33.855-19.513c-0.046-18.65,0.378-37.301,0.591-55.952
		C1866.922,1210.025,1866.905,1208.233,1866.905,1206.066z"/>
	<path style="fill:#FEFEFD;" d="M1661.98,1346.797c-0.284-2.215-0.529-4.129-0.765-5.974c16.729-4.094,21.042-8.423,22.164-25.861
		c2.302-35.754,1.611-71.565,0.575-107.358c-0.037-1.297-0.451-2.583-0.712-3.995c-4.947-3.112-10.602-0.459-15.574-2.125
		c-1.094-1.798-0.826-3.537-0.086-5.724c11.45-1.761,23.052-3.684,33.636-7.785c2.355,1.121,1.972,2.719,1.879,4.187
		c-1.758,27.623-0.786,55.271-0.699,82.908c0.04,12.859-0.282,25.699-3.146,38.249c-3.301,14.461-10.607,26.158-25.014,32.116
		C1670.491,1346.984,1666.582,1347.575,1661.98,1346.797z"/>
	<path style="fill:#FEFEFD;" d="M1988.062,1282.208c0.836,2.207,0.833,3.802-0.259,5.835c-17.868-0.76-35.954-1.098-53.855,0.073
		c-1.974-1.989-1.332-3.835-0.784-5.648c15.511-2.55,15.563-2.548,16.364-18.454c0.939-18.634,1.106-37.271-0.263-55.896
		c-0.107-1.462-0.39-2.91-0.601-4.437c-5.043-3.236-10.705-0.502-15.708-2.203c-1.267-1.696-0.845-3.447-0.248-5.649
		c11.593-1.824,23.318-3.796,35.213-8.36c0,7.707,0,14.508,0,22.685c10.611-12.696,18.842-28.076,38.901-20.391
		c-0.697,8.675-1.359,16.904-2.035,25.317c-1.459,0.064-2.76,0.122-4.168,0.184c-0.349-0.427-0.765-0.761-0.952-1.193
		c-5.041-11.649-21.771-10.63-28.327,0.815c-3.095,5.404-3.736,11.409-3.708,17.395c0.063,13.646,0.559,27.291,0.748,40.937
		c0.077,5.563,2.441,8.221,8.214,8.085C1980.384,1281.214,1984.194,1281.877,1988.062,1282.208z"/>
	<path style="fill:#CACAC8;" d="M1986.103,1041.378c3.231,2.738,8.946,0.635,11.008,5.65c-0.64,2.505-3.035,2.808-4.85,3.759
		c-5.649,2.958-11.34,5.834-16.752,9.366c0.605,3.947,4.478,5.928,4.817,9.63c10.239,11.104,20.479,22.209,30.868,33.476
		c-2.396,3.204-5.195,5.657-8.483,7.992c-26.451-28.512-52.786-56.898-79.12-85.284c-1.416-0.983-2.22-2.521-3.389-3.729
		l-0.113-0.139c0.287-2.388,1.903-2.491,3.634-1.916c10.32,3.429,20.676,6.741,31.036,10.046c9.092,2.9,18.317,5.386,27.296,8.641
		C1983.592,1039.426,1985.37,1039.545,1986.103,1041.378z"/>
	<path style="fill:#C9CAC8;" d="M1820.257,1120.376c15.044,4.662,29.129,9.027,43.126,13.364c0.723,1.888-0.741,2.535-1.453,4.06
		c-17.1-5.021-34.073-10.005-51.633-15.161c9.649-12.072,18.629-23.821,26.927-36.073c28.198-41.629,51.766-85.491,63.327-134.854
		c1.811-7.734,6.373-11.798,12.941-16.715c-7.311,35.267-20.557,67.057-36.602,97.807
		C1860.905,1063.436,1841.901,1092.14,1820.257,1120.376z"/>
	<path style="fill:#E78B20;" d="M1956.505,1114.135c-2.515-2.119-5.029-4.237-8.065-6.796c-6.2,9.649-12.241,19.051-18.282,28.452
		c-0.626-0.099-1.252-0.198-1.878-0.297c-7.119-32.811-14.238-65.622-21.416-98.701c5.11-0.492,5.832,1.812,6.505,4.944
		c5.621,26.146,11.418,52.254,17.368,79.309c7.541-7.696,11.264-17.17,18.428-24.938c4.389,3.989,9.435,7.08,13.047,11.881
		C1958.259,1108.133,1959.282,1112.899,1956.505,1114.135z"/>
	<path style="fill:#FDFDFC;" d="M1693.252,1141.104c6.513,0.103,11.636,5.446,11.497,11.991
		c-0.136,6.366-5.772,11.859-11.986,11.682c-6.341-0.181-11.663-5.802-11.501-12.147
		C1681.427,1146.092,1686.724,1141.002,1693.252,1141.104z"/>
	<path style="fill:#C7C8C8;" d="M1889.482,1123.231c2.326,0.03,4.676-0.148,6.973,0.125c12.701,1.512,15.496,7.233,8.987,18.202
		c-0.589,0.993-1.173,1.99-2.239,3.798c10.086,3.132,19.873,6.171,30.249,9.394c-2.415,1.946-4.395,2.771-6.531,2.16
		c-10.673-3.053-21.31-6.234-32.318-9.476c2.373-5.727,7.156-10.561,4.195-16.951c-1.591-3.433-4.782-4.92-8.398-5.526
		C1889.759,1124.561,1888.585,1124.448,1889.482,1123.231z"/>
	<path style="fill:#EEA91D;" d="M1987.097,1065.963c-1.526,0.668-3.053,1.336-4.579,2.004c-3.632-1.578-6.701-3.546-5.819-8.854
		c7.395-3.685,14.187-8.985,22.685-10.921c1.804-0.662,3.608-1.323,5.658-2.075c1.55,2.988,0.625,5.859,0.774,9.101
		c-4.279,2.363-8.412,4.645-12.544,6.926c-0.949,0.697-2.171,0.947-3.003,1.835l0.009,0.148
		C1989.393,1065.043,1988.204,1065.432,1987.097,1065.963z"/>
	<path style="fill:#484365;" d="M1986.103,1041.378c-20.489-6.357-40.973-12.726-61.474-19.044
		c-1.445-0.445-2.942-1.918-4.539-0.236c-2.219-1.412,0.239-2.652,0.146-3.986c11.15,2.399,21.767,6.549,32.605,9.965
		c12.264,3.865,24.469,7.913,36.701,11.882C1988.396,1040.432,1987.25,1040.905,1986.103,1041.378z"/>
	<path style="fill:#494563;" d="M1999.384,1048.193c-7.277,4.027-14.553,8.055-21.714,12.018c0.543,3.625,3.828,4.956,4.848,7.757
		c-1.04,0.231-1.859,0.73-2.191,1.816c-3.258-2.717-6.516-5.433-10.849-9.046c10.57-5.244,19.102-9.476,27.633-13.709
		C1997.869,1047.416,1998.626,1047.804,1999.384,1048.193z"/>
	<path style="fill:#C1C1C6;" d="M1967.663,965.506c1.646-2.547,4.257-4.654,3.71-8.054c2.804-0.533,5.022-0.94,7.21,0.116
		C1976.579,966.424,1972.778,969.247,1967.663,965.506z"/>
	<path style="fill:#D6A95B;" d="M1976.04,974.264c-3.853,2.97-7.711,2.958-11.57,0.018c0.246-0.115,0.502-0.164,0.77-0.147
		c3.381,0.749,6.763,0.741,10.144-0.001C1975.614,974.121,1975.832,974.164,1976.04,974.264z"/>
	<path style="fill:#BD9F83;" d="M2014.34,1114.947c-0.493-3.003,0.754-6.206-1.044-9.058c0.625-0.527,1.25-1.053,1.875-1.579
		c1.054,3.268,0.655,6.568,0.218,9.87C2015.04,1114.435,2014.69,1114.691,2014.34,1114.947z"/>
	<path style="fill:#593B19;" d="M2015.39,1114.179c-0.073-3.291-0.146-6.581-0.219-9.871
		C2016.998,1107.56,2016.659,1110.859,2015.39,1114.179z"/>
	<path style="fill:#7D520F;" d="M1975.384,974.134c-3.381,1.529-6.762,1.497-10.144,0.001
		C1968.621,974.135,1972.003,974.134,1975.384,974.134z"/>
	<path style="fill:#484365;" d="M1920.203,1022.237c1.13,1.243,2.259,2.486,3.389,3.729
		C1921.76,1025.361,1920.602,1024.143,1920.203,1022.237z"/>
	<path style="fill:#606288;" d="M1889.482,1123.231c0.306,0.576,0.613,1.151,0.919,1.727c-1.078,0.14-2.153,0.269-2.969-0.815
		C1887.592,1122.705,1888.637,1123.177,1889.482,1123.231z"/>
	<path style="fill:#AE894B;" d="M1954.349,1119.24c-0.2-1.777,0.329-3.212,1.94-4.141
		C1956.483,1116.873,1955.784,1118.229,1954.349,1119.24z"/>
	<path style="fill:#AB824C;" d="M1952.319,1123.18c-0.15-1.469,0.273-2.606,1.794-3.11
		C1954.29,1121.554,1953.324,1122.378,1952.319,1123.18z"/>
	<path style="fill:#7E6342;" d="M1946.194,1092.077c0.025,1.428-0.867,2.295-1.888,3.083
		C1944.182,1093.671,1944.679,1092.562,1946.194,1092.077z"/>
	<path style="fill:#A27854;" d="M1950.274,1127.138c-0.088-1.425,0.226-2.615,1.791-3.075
		C1952.203,1125.518,1951.317,1126.374,1950.274,1127.138z"/>
	<path style="fill:#9D814D;" d="M1988.045,1136.283c1.053-0.053,2.105-0.107,3.157-0.16c-0.486,0.586-0.972,1.171-1.347,1.623
		C1988.617,1137.724,1988.2,1137.141,1988.045,1136.283z"/>
	<path style="fill:#816044;" d="M1846.306,1098.107c0.018,1.466-0.914,2.275-2.038,2.952
		C1844.129,1099.51,1844.76,1098.493,1846.306,1098.107z"/>
	<path style="fill:#A87E47;" d="M1990.269,1063.98c0.469-1.483,1.547-1.969,3.003-1.835
		C1992.514,1063.154,1991.721,1064.106,1990.269,1063.98z"/>
	<path style="fill:#836A43;" d="M1940.159,1102.063c0.118,1.477-0.821,2.296-1.889,3.035
		C1938.157,1103.625,1938.671,1102.541,1940.159,1102.063z"/>
	<path style="fill:#B78A49;" d="M1862.194,1075.033c0.147,1.52-0.417,2.585-1.941,3.036
		C1860.156,1076.581,1861.129,1075.778,1862.194,1075.033z"/>
	<path style="fill:#655641;" d="M1987.097,1065.963c0.807-1.051,1.714-1.927,3.181-1.834
		C1989.752,1065.666,1988.645,1066.197,1987.097,1065.963z"/>
	<path style="fill:#F3C45C;" d="M1886.362,1052.175c0.419,6.03-1.815,11.712-2.472,17.625c-0.911,8.196,0.099,16.168,0.445,24.235
		c1.781,2.443,2.502,5.409,3.943,8.019c1.771,1.611,4.361,2.432,5.178,5.406c-9.433,2.359-18.624,4.996-25.996,11.686
		c-1.631,1.48-3.733,0.899-5.692,0.189c-5.739-2.08-11.502-4.096-18.708-6.652c13.763-21.728,29.371-41.981,41.285-64.498
		C1887.355,1048.226,1887.514,1048.541,1886.362,1052.175z"/>
	<path style="fill:#4A425E;" d="M1949.867,986.459c1.028,2.714,0.521,4.203-2.053,5.06c-3.1-1.734-7.884-1.364-9.431-6.432
		C1943.075,981.425,1946.259,985.378,1949.867,986.459z"/>
	<path style="fill:#4D4465;" d="M1969.672,1000.063c-4.662-0.162-8.156-1.833-11.155-4.604c0.201-3.649,2.567-4.354,4.753-3.044
		C1965.936,994.012,1971.582,993.41,1969.672,1000.063z"/>
	<path style="fill:#4D435F;" d="M1928.239,977.89c1.303,1.038,1.856,2.252,0.75,4.125c-4.147,2.111-7.043-1.49-10.333-2.48
		c-0.887-1.758-0.838-3.098,0.038-3.967c2.7-1.711,4.422,0.519,6.465,0.64C1926.183,976.775,1927.335,977.104,1928.239,977.89z"/>
	<path style="fill:#463E5F;" d="M1990.156,1007.994c-3.529,1.259-6.477-0.565-9.258-2.13c-2.679-1.508-2.305-3.625,0.271-5.598
		c1.872,0.625,3.847,1.286,5.822,1.945c1.158,0.484,2.387,0.851,3.176,1.939l0.032-0.011
		C1991.319,1005.437,1991.362,1006.723,1990.156,1007.994z"/>
	<path style="fill:#F5B942;" d="M1886.362,1052.175c-0.223-1.558,0.083-3.384-2.018-3.991c1.639-3.283,3.277-6.567,4.915-9.851
		C1889.838,1043.475,1889.111,1048.091,1886.362,1052.175z"/>
	<path style="fill:#F2B83D;" d="M1888.278,1102.054c-2.669-2.007-3.91-4.716-3.944-8.019
		C1887.64,1095.729,1888.113,1098.816,1888.278,1102.054z"/>
	<path style="fill:#BF9C3D;" d="M1990.156,1007.994c0.015-1.285,0.029-2.57,0.044-3.855
		C1992.968,1005.456,1992.956,1006.741,1990.156,1007.994z"/>
	<path style="fill:#BE8F49;" d="M1990.168,1004.151c-1.058-0.646-2.116-1.292-3.175-1.939
		C1988.56,1002.024,1989.76,1002.438,1990.168,1004.151z"/>
	<path style="fill:#A88845;" d="M1928.239,977.89c-1.361,0.051-2.289-0.689-3.079-1.682
		C1926.563,976.078,1927.753,976.34,1928.239,977.89z"/>
	<path style="fill:#3B3B6D;" d="M1799.015,1233.083c0,9.713,0,18.676,0,27.903c-5.079,6.509-11.147,12.064-19.3,14.864
		c-10.25,3.521-19.925,0.538-22.949-6.923c-4.185-10.325,0.11-23.078,9.583-27.499
		C1776.542,1236.669,1787.581,1235.032,1799.015,1233.083z"/>
	<path style="fill:#3B3B6E;" d="M2092.028,1233.044c0,9.53,0,18.653,0,28.238c-4.814,6.245-10.833,11.608-18.773,14.46
		c-10.152,3.646-19.991,0.792-23.107-6.578c-4.428-10.474,0.013-23.414,9.75-27.88
		C2069.993,1236.653,2080.887,1235.108,2092.028,1233.044z"/>
</g>
<g>
	<path style="fill:#3B3B6D;" d="M737.986,492.035c0.884,1.264,1.541,2.203,2.157,3.084c-2.424,6.598-17.303,14.441-25.293,13.427
		c-15.494-1.966-21.144-8.331-21.045-24.095c0.113-17.989,0.399-35.977,0.604-53.966c0.02-1.787,0.003-3.575,0.003-5.301
		c-5.516-1.431-10.504,0.336-15.163-0.339c-1.182-1.508-1.113-2.723-0.207-4.115c5.162-2.296,10.448-4.647,15.686-6.978
		c0-10.663,0-20.978,0-31.594c5.548-2.569,11.23-5.199,17.215-7.97c2.881,0.594,2.48,2.92,2.31,5.339
		c-0.792,11.262-1.483,22.532-2.238,34.227c9.937,0,19.37,0,29.215,0c-1.442,4.525-1.141,6.432-2.064,10.297
		c-8.738,0-17.505,0-25.661,0c-1.833,1.542-1.473,2.968-1.484,4.241c-0.141,16.661,0.144,33.336-0.463,49.979
		c-0.665,18.254,11.191,19.513,23.702,14.839C736.028,492.824,736.786,492.509,737.986,492.035z"/>
	<path style="fill:#3B3B6D;" d="M490.028,565.728c-1.196-2.154-1.329-4.091-1.072-6.089c17.177-1.195,21.308-12.8,22.048-26.217
		c0.246-34.672,0.748-70.797,0.459-106.923c0-0.013-0.001-0.026-0.001-0.039c-0.099-2.766-2.234-5.064-4.958-5.56
		c-3.776-0.688-7.732,0.352-11.372-0.608c-1.126-1.79-0.583-3.537-0.306-5.813c11.875-1.352,23.439-3.868,34.124-7.614
		c2.2,1.24,1.79,2.679,1.71,3.956c0.578,30.883-0.729,111.261-3.796,121.231c-2.939,13.437-9.735,24.325-22.191,31.054
		C500.164,565.541,495.362,566.435,490.028,565.728z"/>
	<path style="fill:#3B3B6D;" d="M834.41,408.738c-0.723,8.838-1.384,16.924-2.046,25.014c-1.336,1.192-2.812,0.763-4.46,0.508
		c-3.301-7.003-8.587-10.725-16.726-9.283c-7.446,1.319-13.214,7.092-14.806,15.669c-2.481,13.376-1.444,26.906-0.842,40.355
		c0.925,20.682-2.044,18.504,18.95,19.756c0.303,0.018,0.594,0.225,0.972,0.376c1.164,1.615,0.932,3.353,0.066,5.862
		c-17.993-1.153-36.188-1.552-54.121,0.077c-1.674-2.199-1.569-4.034-0.514-5.86c0.219-0.123,0.355-0.26,0.502-0.273
		c15.249-1.37,14.902,1.34,15.649-17.035c0.765-18.809,1.14-37.603-0.239-56.395c-0.119-1.625-0.39-3.239-0.572-4.711
		c-5.066-3.638-10.701-1.263-15.814-2.458c-1.189-1.758-0.615-3.516-0.44-5.797c11.872-1.496,23.488-3.82,35.44-8.115
		c0,7.496,0,14.291,0,22.568C806.015,416.21,814.37,400.99,834.41,408.738z"/>
	<path style="fill:#3B3B6D;" d="M520.504,383.485c-6.49-0.046-11.716-5.257-11.718-11.686c-0.002-6.749,5.33-12.004,12.043-11.87
		c6.499,0.13,11.503,5.348,11.447,11.936C532.221,378.344,526.966,383.531,520.504,383.485z"/>
	<path style="fill:#F5AF22;" d="M748.096,156.794c3.818,0.58,22.817,6.077,31.693,9.329c-0.234,13.116,1.031,25.579,17.463,28.057
		c6.944,1.047,13.002-4.764,17.343-15.994c6.311,0.604,18.504,7.095,21.809,9.562c-0.203,1.327-15.88,63.377-16.625,66.56
		c-2.358-0.188-79.844-20.007-82.013-20.305c2.167,9.442,4.233,18.448,6.299,27.454c1.19,1.882,0.452,4.314,1.757,6.163
		c2.726,10.992,13.935,57.367,15.649,63.471c5.913-9.589,11.148-18.077,16.383-26.566c2.016,1.838,40.348,40.556,41.219,40.995
		c7.536-7.208,15.058-14.402,23.258-22.244c0.877,6.146,0.872,10.251-3.756,13.947c-7.443,5.943-14.202,12.744-21.597,19.5
		c-8.418-9.158-26.786-30.204-28.989-30.144c-2.725-0.025-8.37-7.262-11.165-7.248c-6.813,6.185-9.034,16.687-17.472,21.287
		c-3.868-1.559-4.033-4.486-4.576-6.974c-4.923-22.582-10.267-45.069-15.077-67.676c-0.309-1.451-0.628-2.879-1.219-4.244
		c5.678,29.098,12.676,57.897,18.806,87.197c2.937-0.876,3.602-3.098,4.644-4.827c3.006-4.987,6.027-9.96,9.326-14.764
		c1.52-2.213,2.85-4.867,6.084-4.272c3.157,0.581,5.195,2.77,6.263,5.803c0.221,0.628,0.356,1.283,0.482,1.937
		c-7.923,11.92-11.673,17.981-22.237,31.896c-5.942-1.841-11.883-3.683-17.969-5.569c1.004-7.235,2.086-13.825-3.746-19.083
		c-11.701-10.55-32.928-10.651-44.273,4.479c-3.103-0.244-24.45-6.622-34.812-10.158
		C736.036,236.28,747.038,165.625,748.096,156.794z"/>
	<path style="fill:#CACAC8;" d="M824.568,264.104c-2.913,2.589-16.476,10.104-24.252,15.19c-0.63,0.99-0.339,1.865,0.34,2.691
		c12.631,13.371,25.262,26.743,37.766,39.98c-1.926,4.162-5.373,5.777-8.135,8.921c-9.036-9.776-17.765-19.253-26.532-28.696
		c-18.642-20.078-37.303-40.138-55.956-60.205C755.732,243.131,823.559,263.815,824.568,264.104z"/>
	<path style="fill:#CACAC8;" d="M741.333,154.037c-16.253,70.433-51.251,129.249-93.193,185.316
		c14.616,4.597,28.667,9.017,42.682,13.425c0.042,3.154-1.417,4.171-3.771,3.477c-15.644-4.609-47.724-14.533-47.907-14.651
		c0.04-2.851,75.983-102.306,88.592-169.243c0.248-1.318,0.534-2.627,0.97-3.895C730.781,162.424,734.706,158.543,741.333,154.037z"
		/>
	<path style="fill:#E78B20;" d="M783.954,332.996c-2.471-2.175-4.943-4.35-7.864-6.922c-6.296,9.896-12.401,19.489-19.643,30.873
		c-7.597-34.713-14.791-67.579-22.065-100.815c1.822,0.128,4.403,0.402,5.446,0.449c6.105,27.418,12.635,55.673,18.959,84.075
		c7.637-10.281,11.625-16.375,17.912-26.119c4.031,4.291,7.505,7.494,11.159,12.24C786.556,328.849,785.255,330.922,783.954,332.996
		z"/>
	<path style="fill:#CACAC8;" d="M722.92,364.553c5.764-11.297,5.661-15.45-2.503-19.818c-0.984-0.526,8.619-4.581,14.079,1.718
		c4.73,5.867-2.58,17.451-1.933,17.649c7.932,2.438,18.357,5.916,26.325,8.365c1.214,0.373-2.009,2.125-3.113,1.847
		C747.148,372.144,722.668,365.049,722.92,364.553z"/>
	<path style="fill:#EEA91D;" d="M829.05,264.309c1.735,3.417,2.669,5.121,3.811,7.221c-5.075,3.25-18.083,12.979-24.008,16.658
		c-1.497-1.64-5.132-5.378-6.563-7.221C803.796,279.994,827.35,265.111,829.05,264.309z"/>
	<path style="fill:#CACAC8;" d="M793.036,187.597c2.5-1.254,7.438-4.55,5.833-9.983c2.941-0.303,5.375-0.208,7.958-0.333
		C805.657,185.755,798.256,191.417,793.036,187.597z"/>
	<path style="fill:#FFFFFF;" d="M717.496,244.646"/>
	<path style="fill:#F3C45C;" d="M723.453,328.197c-12.583-2.75-23.218,6.245-24.25,7.583c-6.916,8.971-28.606-1.845-31.083-3.083
		c42.316-52.229,47.333-74.75,47.333-74.75C715.93,257.245,721.036,319.447,723.453,328.197z"/>
	<path style="fill:#FFFFFF;" d="M818.011,224.525c-0.005,0.023-0.011,0.047-0.017,0.07c-0.346,1.423-1.64,2.443-3.104,2.413
		c-3.587-0.076-9.611-2.748-8.517-6.385c0.333-1.108,1.407-1.816,2.56-1.72c2.224,0.186,5.642,1.544,7.517,2.449
		C817.637,221.926,818.31,223.241,818.011,224.525z"/>
	<path style="fill:#FFFFFF;" d="M798.076,215.632c-0.005,0.023-0.011,0.047-0.017,0.07c-0.346,1.423-1.64,2.443-3.104,2.413
		c-3.587-0.076-9.611-2.748-8.517-6.385c0.333-1.108,1.407-1.816,2.56-1.72c2.224,0.186,5.642,1.544,7.517,2.449
		C797.703,213.032,798.375,214.348,798.076,215.632z"/>
	<path style="fill:#FFFFFF;" d="M778.141,207.143c-0.005,0.023-0.011,0.047-0.017,0.07c-0.346,1.423-1.64,2.443-3.104,2.413
		c-3.587-0.076-9.611-2.748-8.517-6.385c0.333-1.108,1.407-1.816,2.56-1.72c2.224,0.186,5.642,1.544,7.517,2.449
		C777.768,204.544,778.44,205.859,778.141,207.143z"/>
	<path style="fill:#FFFFFF;" d="M758.207,198.928c-0.005,0.023-0.011,0.047-0.017,0.07c-0.346,1.423-1.64,2.443-3.104,2.413
		c-3.587-0.076-9.611-2.748-8.517-6.385c0.333-1.108,1.407-1.816,2.56-1.72c2.224,0.186,5.642,1.544,7.517,2.449
		C757.833,196.328,758.505,197.643,758.207,198.928z"/>
	<path style="fill:#3B3B6D;" d="M656.899,500.923c-3.562-0.595-7.741,0.194-11.292-2.137c-1.832-2.835-1.68-6.042-1.649-9.17
		c0.171-16.985,0.442-33.969,0.615-50.955c0.161-15.87-8.902-27.725-23.703-30.876c-17.92-3.815-33.354,1.804-47.332,12.411
		c0,4.811,0,9.253,0,13.608c1.732,0.971,3.213,1.555,5.071,1.178c2.511-7.201,3.538-14.212,12.425-16.072
		c7.29-1.525,14.444-2.097,21.532,0.562c9.995,3.75,15.64,14.752,13.436,26.01c-2.429,0.402-4.88,0.779-7.321,1.216
		c-13.074,2.336-26.351,4.013-38.523,9.746c-11.512,5.423-15.381,15.44-15.508,27.443c-0.104,9.819,3.329,17.898,12.691,21.888
		c10.802,4.603,21.543,5.043,31.369-3.066c5.549-4.58,11.362-8.84,17.534-13.613c1.041,6.405-1.092,12.075,0.908,17.906
		c10.28-1.119,20.162-1.303,30.199-0.06C657.923,504.672,658.406,502.974,656.899,500.923z M626.504,480.066
		c-7.694,8.962-16.322,16.54-29.615,15.795c-7.219-0.405-11.746-3.965-13.398-11.014c-2.7-11.518,2.243-21.544,13.207-25.689
		c5.691-2.151,11.677-3.576,17.6-5.042c3.819-0.945,7.767-1.37,12.205-2.121C626.504,461.77,626.504,470.704,626.504,480.066z"/>
	<path style="fill:#3B3B6D;" d="M950.166,501.047c-11.767-1.515-13.246,1.578-13.083-15.288c0.155-15.991,0.57-31.98,0.634-47.97
		c0.064-15.99-9.543-27.28-25.002-30.224c-17.498-3.332-32.326,2.479-45.931,12.568c0,4.784,0,9.233,0,13.9
		c1.728,0.492,3.253,0.926,4.803,1.368c2.199-8.455,3.673-14.543,12.548-16.458c7.289-1.573,14.456-2.135,21.554,0.476
		c10.156,3.736,15.608,14.325,13.488,26.046c-2.398,0.401-4.842,0.781-7.275,1.221c-13.398,2.425-27.034,4.105-39.434,10.193
		c-10.304,5.059-15.741,16.805-14.523,30.038c0.971,10.552,6.766,17.861,16.848,20.536c10.121,2.686,19.65,2.045,28.044-5.387
		c5.094-4.51,10.734-8.402,16.554-12.901c0.967,6.494-0.849,12.013,0.912,17.801c10.282-1.005,20.169-1.426,29.92,0.012
		C951.381,504.619,951.563,502.785,950.166,501.047z M919.511,479.251c-0.318,3.916-4.685,6.253-7.68,8.834
		c-7.009,6.041-15.105,9.125-24.403,7.479c-6.474-1.146-10.007-5.422-10.899-11.96c-1.372-10.059,1.903-18.808,9.231-22.551
		c10.452-5.339,21.939-7.047,33.977-9.094C919.738,461.399,920.231,470.374,919.511,479.251z"/>
</g>
<g>
	<path style="fill:#3B3B6D;" d="M2130.893,526.81c0.884,1.264,1.541,2.203,2.157,3.084c-2.424,6.598-17.303,14.441-25.293,13.427
		c-15.494-1.966-21.144-8.331-21.045-24.094c0.113-17.989,0.398-35.977,0.604-53.966c0.021-1.787,0.003-3.575,0.003-5.301
		c-5.516-1.431-10.504,0.336-15.164-0.339c-1.182-1.508-1.113-2.723-0.207-4.115c5.162-2.296,10.448-4.647,15.686-6.978
		c0-10.663,0-20.978,0-31.594c5.548-2.569,11.23-5.199,17.215-7.97c2.881,0.594,2.48,2.92,2.31,5.339
		c-0.792,11.262-1.483,22.532-2.238,34.227c9.937,0,19.37,0,29.215,0c-1.442,4.525-1.141,6.432-2.064,10.297
		c-8.738,0-17.505,0-25.661,0c-1.833,1.542-1.473,2.968-1.484,4.241c-0.141,16.661,0.144,33.336-0.463,49.979
		c-0.665,18.254,11.191,19.513,23.702,14.839C2128.934,527.599,2129.693,527.284,2130.893,526.81z"/>
	<path style="fill:#3B3B6D;" d="M1882.935,600.503c-1.196-2.154-1.329-4.091-1.073-6.089c17.177-1.195,21.308-12.8,22.048-26.217
		c0.246-34.672,0.748-70.797,0.459-106.923c0-0.013-0.001-0.026-0.001-0.039c-0.099-2.766-2.234-5.064-4.958-5.56
		c-3.776-0.688-7.732,0.352-11.372-0.608c-1.126-1.79-0.583-3.537-0.306-5.813c11.875-1.352,23.439-3.868,34.124-7.614
		c2.2,1.24,1.79,2.679,1.71,3.956c0.578,30.883-0.729,111.261-3.796,121.231c-2.939,13.436-9.735,24.325-22.191,31.054
		C1893.07,600.316,1888.268,601.21,1882.935,600.503z"/>
	<path style="fill:#3B3B6D;" d="M2227.316,443.513c-0.723,8.838-1.385,16.924-2.046,25.014c-1.336,1.192-2.812,0.763-4.46,0.508
		c-3.301-7.003-8.587-10.725-16.726-9.283c-7.446,1.319-13.214,7.092-14.806,15.669c-2.481,13.376-1.444,26.906-0.842,40.355
		c0.925,20.682-2.044,18.504,18.95,19.756c0.302,0.018,0.594,0.225,0.972,0.376c1.164,1.615,0.932,3.352,0.066,5.862
		c-17.993-1.153-36.188-1.552-54.121,0.077c-1.674-2.199-1.569-4.034-0.514-5.86c0.219-0.123,0.355-0.26,0.502-0.273
		c15.25-1.37,14.902,1.34,15.649-17.035c0.765-18.809,1.14-37.603-0.239-56.395c-0.119-1.625-0.39-3.239-0.572-4.711
		c-5.065-3.638-10.701-1.263-15.814-2.458c-1.189-1.758-0.615-3.516-0.44-5.797c11.872-1.496,23.488-3.82,35.44-8.115
		c0,7.496,0,14.291,0,22.568C2198.921,450.985,2207.277,435.765,2227.316,443.513z"/>
	<path style="fill:#3B3B6D;" d="M1913.41,418.26c-6.49-0.046-11.716-5.257-11.718-11.686c-0.002-6.749,5.33-12.004,12.043-11.87
		c6.499,0.13,11.503,5.348,11.447,11.936C1925.128,413.119,1919.873,418.306,1913.41,418.26z"/>
	<path style="fill:#F5AF22;" d="M2141.002,191.569c3.818,0.58,22.817,6.077,31.693,9.329c-0.234,13.116,1.031,25.579,17.463,28.057
		c6.944,1.047,13.002-4.764,17.344-15.994c6.311,0.604,18.504,7.095,21.809,9.562c-0.203,1.327-15.88,63.377-16.625,66.56
		c-2.357-0.188-79.844-20.007-82.013-20.305c2.167,9.442,4.233,18.448,6.299,27.454c1.19,1.882,0.452,4.314,1.757,6.163
		c2.726,10.992,13.935,57.367,15.649,63.471c5.913-9.589,11.148-18.077,16.383-26.566c2.016,1.838,40.348,40.556,41.219,40.995
		c7.536-7.208,15.058-14.402,23.258-22.244c0.877,6.146,0.872,10.251-3.757,13.947c-7.443,5.943-14.201,12.744-21.596,19.5
		c-8.418-9.158-26.787-30.204-28.989-30.144c-2.725-0.025-8.37-7.262-11.166-7.248c-6.813,6.185-9.034,16.687-17.472,21.287
		c-3.868-1.559-4.033-4.486-4.575-6.974c-4.923-22.582-10.267-45.07-15.077-67.676c-0.309-1.451-0.628-2.879-1.219-4.244
		c5.678,29.098,12.676,57.897,18.806,87.197c2.937-0.876,3.602-3.098,4.644-4.827c3.006-4.987,6.027-9.96,9.326-14.763
		c1.52-2.213,2.85-4.867,6.084-4.272c3.157,0.581,5.195,2.77,6.263,5.803c0.221,0.628,0.356,1.283,0.482,1.937
		c-7.923,11.92-11.673,17.981-22.237,31.896c-5.942-1.841-11.883-3.683-17.969-5.569c1.004-7.235,2.086-13.825-3.746-19.083
		c-11.701-10.551-32.928-10.651-44.273,4.479c-3.103-0.244-24.45-6.622-34.812-10.158
		C2128.943,271.055,2139.945,200.4,2141.002,191.569z"/>
	<path style="fill:#CACAC8;" d="M2217.474,298.879c-2.913,2.589-16.476,10.104-24.252,15.19c-0.63,0.99-0.339,1.865,0.34,2.691
		c12.631,13.371,25.262,26.743,37.766,39.98c-1.926,4.162-5.373,5.777-8.135,8.921c-9.036-9.776-17.765-19.253-26.532-28.696
		c-18.642-20.078-37.303-40.138-55.956-60.205C2148.639,277.906,2216.465,298.59,2217.474,298.879z"/>
	<path style="fill:#CACAC8;" d="M2134.24,188.812c-16.253,70.433-51.251,129.249-93.193,185.316
		c14.616,4.597,28.667,9.017,42.683,13.425c0.042,3.154-1.417,4.171-3.771,3.477c-15.644-4.609-47.724-14.533-47.907-14.651
		c0.04-2.851,75.983-102.306,88.592-169.243c0.248-1.318,0.534-2.627,0.97-3.895C2123.687,197.199,2127.612,193.318,2134.24,188.812
		z"/>
	<path style="fill:#E78B20;" d="M2176.86,367.771c-2.471-2.175-4.942-4.35-7.864-6.922c-6.296,9.896-12.401,19.489-19.644,30.873
		c-7.597-34.713-14.791-67.579-22.064-100.815c1.822,0.128,4.403,0.402,5.446,0.449c6.105,27.418,12.635,55.673,18.959,84.075
		c7.637-10.281,11.625-16.375,17.912-26.119c4.031,4.291,7.505,7.494,11.159,12.24
		C2179.462,363.624,2178.161,365.697,2176.86,367.771z"/>
	<path style="fill:#CACAC8;" d="M2115.827,399.328c5.764-11.297,5.661-15.45-2.503-19.818c-0.984-0.526,8.619-4.581,14.079,1.718
		c4.73,5.867-2.58,17.451-1.933,17.649c7.932,2.438,18.357,5.916,26.325,8.365c1.214,0.373-2.009,2.125-3.113,1.847
		C2140.054,406.919,2115.574,399.824,2115.827,399.328z"/>
	<path style="fill:#EEA91D;" d="M2221.956,299.084c1.735,3.418,2.669,5.121,3.812,7.221c-5.075,3.25-18.083,12.979-24.008,16.658
		c-1.497-1.64-5.132-5.378-6.563-7.221C2196.702,314.769,2220.257,299.886,2221.956,299.084z"/>
	<path style="fill:#CACAC8;" d="M2185.943,222.372c2.5-1.254,7.438-4.55,5.833-9.983c2.941-0.303,5.375-0.208,7.958-0.333
		C2198.563,220.53,2191.162,226.192,2185.943,222.372z"/>
	<path style="fill:#FFFFFF;" d="M2110.403,279.421"/>
	<path style="fill:#F3C45C;" d="M2116.359,362.972c-12.583-2.75-23.219,6.245-24.25,7.583c-6.916,8.971-28.606-1.845-31.083-3.083
		c42.316-52.229,47.333-74.75,47.333-74.75C2108.836,292.02,2113.943,354.222,2116.359,362.972z"/>
	<path style="fill:#FFFFFF;" d="M2210.917,259.3c-0.006,0.023-0.011,0.047-0.017,0.07c-0.346,1.423-1.64,2.443-3.104,2.413
		c-3.587-0.076-9.611-2.748-8.517-6.385c0.333-1.108,1.407-1.816,2.56-1.72c2.223,0.186,5.642,1.544,7.517,2.449
		C2210.544,256.701,2211.216,258.016,2210.917,259.3z"/>
	<path style="fill:#FFFFFF;" d="M2190.983,250.407c-0.006,0.023-0.011,0.047-0.017,0.07c-0.346,1.423-1.64,2.443-3.104,2.413
		c-3.587-0.076-9.611-2.748-8.517-6.385c0.333-1.108,1.407-1.816,2.56-1.72c2.223,0.186,5.642,1.544,7.517,2.449
		C2190.609,247.807,2191.281,249.123,2190.983,250.407z"/>
	<path style="fill:#FFFFFF;" d="M2171.048,241.918c-0.006,0.023-0.011,0.047-0.017,0.07c-0.346,1.423-1.64,2.443-3.104,2.413
		c-3.587-0.076-9.611-2.748-8.517-6.385c0.333-1.108,1.407-1.816,2.56-1.72c2.224,0.186,5.642,1.544,7.517,2.449
		C2170.674,239.319,2171.346,240.634,2171.048,241.918z"/>
	<path style="fill:#FFFFFF;" d="M2151.113,233.703c-0.005,0.023-0.011,0.047-0.017,0.07c-0.346,1.423-1.64,2.443-3.104,2.413
		c-3.587-0.076-9.611-2.748-8.517-6.385c0.333-1.108,1.407-1.816,2.56-1.72c2.224,0.186,5.642,1.544,7.517,2.449
		C2150.739,231.103,2151.411,232.418,2151.113,233.703z"/>
	<path style="fill:#3B3B6D;" d="M2049.806,535.698c-3.562-0.595-7.742,0.194-11.292-2.137c-1.832-2.835-1.68-6.042-1.649-9.17
		c0.171-16.985,0.442-33.969,0.615-50.955c0.161-15.87-8.902-27.725-23.703-30.876c-17.92-3.815-33.354,1.804-47.332,12.411
		c0,4.811,0,9.253,0,13.608c1.732,0.971,3.213,1.555,5.071,1.178c2.511-7.201,3.538-14.212,12.425-16.072
		c7.29-1.525,14.444-2.097,21.531,0.562c9.995,3.75,15.64,14.752,13.436,26.01c-2.429,0.402-4.88,0.779-7.321,1.216
		c-13.074,2.336-26.351,4.013-38.523,9.746c-11.512,5.423-15.381,15.44-15.508,27.443c-0.104,9.819,3.329,17.898,12.692,21.888
		c10.802,4.603,21.543,5.043,31.369-3.066c5.549-4.58,11.362-8.84,17.534-13.613c1.041,6.405-1.093,12.075,0.908,17.906
		c10.28-1.119,20.162-1.303,30.199-0.06C2050.829,539.447,2051.313,537.749,2049.806,535.698z M2019.41,514.841
		c-7.694,8.962-16.322,16.54-29.615,15.795c-7.219-0.405-11.746-3.965-13.398-11.014c-2.7-11.518,2.243-21.545,13.207-25.689
		c5.691-2.151,11.677-3.576,17.6-5.042c3.819-0.945,7.767-1.37,12.205-2.121C2019.41,496.545,2019.41,505.479,2019.41,514.841z"/>
	<path style="fill:#3B3B6D;" d="M2343.073,535.822c-11.767-1.515-13.246,1.578-13.083-15.288c0.155-15.991,0.571-31.98,0.634-47.97
		c0.063-15.99-9.543-27.28-25.002-30.224c-17.498-3.332-32.326,2.479-45.931,12.568c0,4.784,0,9.233,0,13.9
		c1.728,0.492,3.252,0.926,4.803,1.368c2.199-8.455,3.673-14.543,12.548-16.458c7.289-1.573,14.456-2.135,21.554,0.476
		c10.156,3.736,15.608,14.325,13.489,26.046c-2.398,0.401-4.842,0.781-7.275,1.221c-13.398,2.425-27.034,4.105-39.434,10.193
		c-10.304,5.059-15.741,16.805-14.523,30.038c0.971,10.552,6.767,17.861,16.849,20.536c10.121,2.686,19.65,2.045,28.044-5.387
		c5.094-4.51,10.734-8.402,16.554-12.901c0.967,6.494-0.849,12.013,0.912,17.801c10.282-1.005,20.169-1.426,29.92,0.012
		C2344.288,539.394,2344.469,537.56,2343.073,535.822z M2312.417,514.026c-0.318,3.916-4.686,6.253-7.68,8.834
		c-7.009,6.041-15.105,9.125-24.403,7.479c-6.474-1.146-10.007-5.422-10.899-11.96c-1.373-10.059,1.903-18.808,9.231-22.551
		c10.452-5.339,21.939-7.047,33.977-9.094C2312.644,496.174,2313.137,505.149,2312.417,514.026z"/>
</g>
</svg>
